<svg width="21" height="20" viewBox="0 0 21 20" fill="none" xmlns="http://www.w3.org/2000/svg">
    <path d="M19.9971 0.488525H12.9971C12.2567 0.491036 11.5437 0.769433 10.9971 1.26948C10.4505 0.769433 9.73749 0.491036 8.99707 0.488525H1.99707C1.73185 0.488525 1.4775 0.594011 1.28996 0.781776C1.10243 0.969542 0.99707 1.22421 0.99707 1.48975V16.5081C0.99707 16.7736 1.10243 17.0283 1.28996 17.216C1.4775 17.4038 1.73185 17.5093 1.99707 17.5093H7.75507C8.28107 17.5093 8.79707 17.7235 9.16907 18.096L10.2901 19.2184C10.2991 19.2274 10.3111 19.2304 10.3201 19.2394C10.4061 19.3185 10.5021 19.3886 10.6141 19.4356H10.6161C10.86 19.5368 11.1341 19.5368 11.3781 19.4356H11.3801C11.4921 19.3886 11.5881 19.3185 11.6741 19.2394C11.6831 19.2304 11.6951 19.2274 11.7041 19.2184L12.8251 18.096C13.201 17.7218 13.709 17.511 14.2391 17.5093H19.9971C20.2623 17.5093 20.5166 17.4038 20.7042 17.216C20.8917 17.0283 20.9971 16.7736 20.9971 16.5081V1.48975C20.9971 1.22421 20.8917 0.969542 20.7042 0.781776C20.5166 0.594011 20.2623 0.488525 19.9971 0.488525ZM7.75507 15.5068H2.99707V2.49097H8.99707C9.54907 2.49097 9.99707 2.94052 9.99707 3.49219V16.1967C9.33453 15.7494 8.55417 15.5093 7.75507 15.5068ZM18.9971 15.5068H14.2391C13.4401 15.5068 12.6551 15.7531 11.9971 16.1967V3.49219C11.9971 2.94052 12.4451 2.49097 12.9971 2.49097H18.9971V15.5068Z" fill="#FFFFFF"/>
</svg>
